<?xml version="1.0" encoding="utf-8"?>
<!-- Generator: Adobe Illustrator 16.0.0, SVG Export Plug-In . SVG Version: 6.00 Build 0)  -->
<!DOCTYPE svg PUBLIC "-//W3C//DTD SVG 1.1//EN" "http://www.w3.org/Graphics/SVG/1.1/DTD/svg11.dtd">
<svg version="1.1" id="Layer_1" xmlns="http://www.w3.org/2000/svg" xmlns:xlink="http://www.w3.org/1999/xlink" x="0px" y="0px"
	 width="24px" height="24px" viewBox="0 0 24 24" enable-background="new 0 0 24 24" xml:space="preserve">
<path fill="#9CA09F" d="M21.944,21.409L15.375,8.667v-6.75h1.687V0.23h-1.697V0.22l-0.77,0.008H6.938v1.679h1.688v6.668
	L2.055,21.414c-0.414,0.835-0.074,1.848,0.761,2.262c0.232,0.116,0.489,0.177,0.748,0.177h16.873
	c0.932-0.001,1.687-0.758,1.686-1.689C22.122,21.901,22.061,21.644,21.944,21.409z M10.132,9.345l0.181-0.363V1.968l3.374-0.041
	v7.149l0.186,0.363l3.083,5.977H7.021L10.132,9.345L10.132,9.345z M3.563,22.184l2.599-5.081h11.668l2.61,5.063L3.563,22.184z"/>
</svg>
