<?xml version="1.0" encoding="utf-8"?>
<!-- Generator: Adobe Illustrator 16.0.0, SVG Export Plug-In . SVG Version: 6.00 Build 0)  -->
<!DOCTYPE svg PUBLIC "-//W3C//DTD SVG 1.1//EN" "http://www.w3.org/Graphics/SVG/1.1/DTD/svg11.dtd">
<svg version="1.1" id="Layer_1" xmlns="http://www.w3.org/2000/svg" xmlns:xlink="http://www.w3.org/1999/xlink" x="0px" y="0px"
	 width="24px" height="24px" viewBox="0 0 24 24" enable-background="new 0 0 24 24" xml:space="preserve">
<path fill="#9CA09F" d="M13.479,1.647l1.479-1.479h7.395l1.479,1.479v7.395l-1.479,1.479h-7.395l-1.479-1.479V1.647z M14.958,1.647
	v7.395h7.395V1.647H14.958z M0.168,14.958V6.084l1.479-1.479h7.395l1.479,1.479v7.396h7.395l1.479,1.479v7.395l-1.479,1.479H1.647
	l-1.479-1.479V14.958z M9.042,13.479V6.084H1.647v7.396H9.042z M9.042,14.958H1.647v7.395h7.395V14.958z M10.521,22.353h7.395
	v-7.395h-7.395V22.353z"/>
</svg>
