<?xml version="1.0" encoding="utf-8"?>
<!-- Generator: Adobe Illustrator 16.0.0, SVG Export Plug-In . SVG Version: 6.00 Build 0)  -->
<!DOCTYPE svg PUBLIC "-//W3C//DTD SVG 1.1//EN" "http://www.w3.org/Graphics/SVG/1.1/DTD/svg11.dtd">
<svg version="1.1" id="Layer_1" xmlns="http://www.w3.org/2000/svg" xmlns:xlink="http://www.w3.org/1999/xlink" x="0px" y="0px"
	 width="24px" height="24px" viewBox="0 0 24 24" enable-background="new 0 0 24 24" xml:space="preserve">
<title>download</title>
<path fill="#151616" d="M19.557,9.492h-4.285V2.484c0-0.597-0.498-1.095-1.096-1.095H9.893c-0.631,0-1.129,0.498-1.129,1.095v7.008
	H4.479c-0.565,0-0.765,0.366-0.333,0.798l7.108,7.073c0.2,0.201,0.466,0.301,0.765,0.301c0.298,0,0.599-0.102,0.795-0.301
	l7.076-7.073C20.289,9.858,20.156,9.492,19.557,9.492z M0.094,14.51v7.57c0,0.334,0.166,0.531,0.532,0.531h22.718
	c0.365,0,0.563-0.199,0.563-0.531v-7.57c0-0.334-0.267-0.566-0.563-0.566h-2.16c-0.299,0-0.563,0.269-0.563,0.566v4.814H3.349V14.51
	c0-0.334-0.233-0.566-0.531-0.566H0.625C0.327,13.943,0.094,14.211,0.094,14.51z"/>
</svg>
