<?xml version="1.0" encoding="utf-8"?>
<!-- Generator: Adobe Illustrator 16.0.0, SVG Export Plug-In . SVG Version: 6.00 Build 0)  -->
<!DOCTYPE svg PUBLIC "-//W3C//DTD SVG 1.1//EN" "http://www.w3.org/Graphics/SVG/1.1/DTD/svg11.dtd">
<svg version="1.1" id="Layer_1" xmlns="http://www.w3.org/2000/svg" xmlns:xlink="http://www.w3.org/1999/xlink" x="0px" y="0px"
	 width="24px" height="24px" viewBox="0 0 24 24" enable-background="new 0 0 24 24" xml:space="preserve">
<path fill="#9CA09F" d="M10.323,18.713c4.633,0,8.388-3.754,8.388-8.389c0-4.631-3.755-8.387-8.388-8.387
	c-4.632,0-8.387,3.756-8.387,8.387C1.936,14.959,5.691,18.713,10.323,18.713z M18.117,16.693l5.626,5.625l-1.426,1.424l-5.625-5.623
	C12.388,21.639,6.048,21,2.529,16.693c-3.518-4.303-2.88-10.645,1.425-14.163C8.258-0.987,14.6-0.35,18.117,3.956
	C21.146,7.662,21.146,12.985,18.117,16.693z"/>
</svg>
