<?xml version="1.0" encoding="utf-8"?>
<!-- Generator: Adobe Illustrator 16.0.0, SVG Export Plug-In . SVG Version: 6.00 Build 0)  -->
<!DOCTYPE svg PUBLIC "-//W3C//DTD SVG 1.1//EN" "http://www.w3.org/Graphics/SVG/1.1/DTD/svg11.dtd">
<svg version="1.1" id="Layer_1" xmlns="http://www.w3.org/2000/svg" xmlns:xlink="http://www.w3.org/1999/xlink" x="0px" y="0px"
	 width="24px" height="24px" viewBox="0 0 24 24" enable-background="new 0 0 24 24" xml:space="preserve">
<title>share-nodes</title>
<path fill="#9CA09F" d="M19.721,15.666c-1.229,0.004-2.326,0.561-3.063,1.432l-0.004,0.006l-8.409-4.205
	c0.067-0.269,0.106-0.577,0.106-0.894c0-0.318-0.039-0.626-0.112-0.92l0.005,0.026l8.411-4.205c0.742,0.855,1.83,1.392,3.043,1.392
	c2.223,0,4.023-1.801,4.023-4.024S21.922,0.25,19.699,0.25s-4.025,1.802-4.025,4.024c0,0.008,0,0.015,0,0.023V4.297
	c0.004,0.317,0.041,0.625,0.113,0.92l-0.006-0.028L7.372,9.394c-0.747-0.88-1.855-1.437-3.093-1.437
	c-2.235,0-4.046,1.813-4.046,4.047c0,2.235,1.812,4.047,4.046,4.047c1.238,0,2.346-0.557,3.088-1.43l0.005-0.008l8.409,4.205
	c-0.063,0.268-0.1,0.574-0.1,0.891c0,2.23,1.811,4.041,4.043,4.041s4.043-1.811,4.043-4.041c0-2.234-1.811-4.045-4.043-4.045h-0.002
	l0,0L19.721,15.666z M19.721,2.177c1.172,0,2.121,0.949,2.121,2.12c0,1.17-0.949,2.119-2.121,2.119c-1.17,0-2.119-0.949-2.119-2.119
	l0,0C17.602,3.127,18.551,2.178,19.721,2.177L19.721,2.177z M4.305,14.125c-1.171,0-2.12-0.949-2.12-2.12
	c0-1.172,0.949-2.121,2.12-2.121c1.17,0,2.119,0.949,2.119,2.121l0,0C6.423,13.176,5.475,14.123,4.305,14.125L4.305,14.125z
	 M19.721,21.834c-1.17,0-2.119-0.949-2.119-2.121c0-1.17,0.949-2.119,2.119-2.119c1.172,0,2.121,0.949,2.121,2.119l0,0
	C21.84,20.883,20.891,21.832,19.721,21.834L19.721,21.834z"/>
</svg>
