<?xml version="1.0" encoding="utf-8"?>
<!-- Generator: Adobe Illustrator 16.0.0, SVG Export Plug-In . SVG Version: 6.00 Build 0)  -->
<!DOCTYPE svg PUBLIC "-//W3C//DTD SVG 1.1//EN" "http://www.w3.org/Graphics/SVG/1.1/DTD/svg11.dtd">
<svg version="1.1" id="Layer_1" xmlns="http://www.w3.org/2000/svg" xmlns:xlink="http://www.w3.org/1999/xlink" x="0px" y="0px"
	 width="24px" height="24px" viewBox="0 0 24 24" enable-background="new 0 0 24 24" xml:space="preserve">
<path fill="#9CA09F" d="M15.533,1.794c-0.217,0.003-0.396,0.176-0.393,0.393v3.14c0,0.64,0.516,1.178,1.154,1.178h3.164
	c0.526,0,0.513-0.785,0-0.785h-3.164c-0.205,0-0.369-0.163-0.369-0.393v-3.14C15.93,1.965,15.755,1.791,15.533,1.794z M6.874,0.224
	c-0.639,0-1.154,0.538-1.154,1.178v18.058c0,0.639,0.515,1.176,1.154,1.176h13.393c0.64,0,1.155-0.537,1.155-1.176V5.327
	c0-0.104-0.042-0.204-0.115-0.278l-4.711-4.71c-0.073-0.074-0.172-0.115-0.278-0.115H6.874z M6.874,1.009h9.282l4.481,4.48v13.97
	c0,0.229-0.165,0.392-0.37,0.392H6.874c-0.204,0-0.369-0.163-0.369-0.392V1.401C6.504,1.171,6.669,1.009,6.874,1.009z M3.733,3.364
	c-0.639,0-1.154,0.538-1.154,1.178v18.056c0,0.64,0.515,1.179,1.154,1.179h13.394c0.639,0,1.153-0.539,1.153-1.179v-0.784
	c0.009-0.53-0.792-0.53-0.784,0v0.784c0,0.231-0.166,0.393-0.369,0.393H3.733c-0.205,0-0.369-0.161-0.369-0.393V4.542
	c0-0.229,0.165-0.393,0.369-0.393h0.832c0.53,0.008,0.53-0.793,0-0.785H3.733z"/>
</svg>
