<?xml version="1.0" encoding="utf-8"?>
<!-- Generator: Adobe Illustrator 16.0.0, SVG Export Plug-In . SVG Version: 6.00 Build 0)  -->
<!DOCTYPE svg PUBLIC "-//W3C//DTD SVG 1.1//EN" "http://www.w3.org/Graphics/SVG/1.1/DTD/svg11.dtd">
<svg version="1.1" id="Layer_1" xmlns="http://www.w3.org/2000/svg" xmlns:xlink="http://www.w3.org/1999/xlink" x="0px" y="0px"
	 width="64px" height="64px" viewBox="0 0 64 64" enable-background="new 0 0 64 64" xml:space="preserve">
<path fill="#E3E5E5" d="M16.236,0.75c-2.148,0-3.906,1.758-3.906,3.906v54.687c0,2.15,1.758,3.906,3.906,3.906h39.063
	c2.148,0,3.904-1.756,3.904-3.906V16.375L43.58,0.75H16.236z"/>
<path fill="#B1BCBB" d="M47.486,16.375h11.717L43.58,0.75v11.718C43.58,14.618,45.336,16.375,47.486,16.375z"/>
<polygon fill="#CAD7D6" points="59.203,28.094 47.486,16.375 59.203,16.375 "/>
<linearGradient id="SVGID_1_" gradientUnits="userSpaceOnUse" x1="4.5176" y1="41.7666" x2="51.3926" y2="41.7666">
	<stop  offset="0" style="stop-color:#8AC640"/>
	<stop  offset="1" style="stop-color:#019597"/>
</linearGradient>
<path fill="url(#SVGID_1_)" d="M51.393,51.533c0,1.072-0.879,1.953-1.953,1.953H6.471c-1.074,0-1.953-0.881-1.953-1.953V32.001
	c0-1.075,0.879-1.954,1.953-1.954h42.969c1.074,0,1.953,0.879,1.953,1.954V51.533z"/>
<g>
	<path fill="#FFFFFF" d="M13.299,42.145c0-3.014,1.889-5.607,5.482-5.607c1.357,0,2.436,0.406,3.577,1.393
		c0.421,0.387,0.466,1.076,0.044,1.512c-0.422,0.373-1.062,0.33-1.435-0.047c-0.641-0.672-1.297-0.855-2.186-0.855
		c-2.404,0-3.561,1.703-3.561,3.605c0,1.939,1.141,3.717,3.561,3.717c0.889,0,1.716-0.359,2.436-1
		c0.484-0.375,1.156-0.188,1.435,0.188c0.251,0.344,0.376,0.924-0.171,1.469c-1.093,1.016-2.404,1.221-3.701,1.221
		C15.002,47.738,13.299,45.158,13.299,42.145z"/>
	<path fill="#FFFFFF" d="M24.502,39.164c0.359-3.031,4.935-3.578,7.09-1.922c1.062,0.859-0.063,2.217-1,1.529
		c-1.155-0.734-3.779-1.078-4.107,0.545c-0.421,2.563,6.371,1.098,6.262,5.25c-0.109,3.967-5.855,4.059-8.011,2.277
		c-0.518-0.42-0.5-1.104-0.219-1.527c0.406-0.404,0.857-0.545,1.391-0.111c1.279,0.875,4.576,1.533,4.81-0.689
		C30.516,42.209,24.018,43.598,24.502,39.164z"/>
	<path fill="#FFFFFF" d="M34.361,39.164c0.357-3.031,4.934-3.578,7.088-1.922c1.064,0.859-0.063,2.217-0.998,1.529
		c-1.156-0.734-3.779-1.078-4.109,0.545c-0.42,2.563,6.373,1.098,6.264,5.25c-0.111,3.967-5.855,4.059-8.012,2.277
		c-0.516-0.42-0.5-1.104-0.219-1.527c0.406-0.404,0.859-0.545,1.391-0.111c1.279,0.875,4.576,1.533,4.809-0.689
		C40.375,42.209,33.877,43.598,34.361,39.164z"/>
</g>
<path fill="#CAD7D4" d="M49.439,53.486H12.33v1.953h37.109c1.074,0,1.953-0.879,1.953-1.953v-1.953
	C51.393,52.605,50.514,53.486,49.439,53.486z"/>
</svg>
