<?xml version="1.0" encoding="utf-8"?>
<!-- Generator: Adobe Illustrator 16.0.0, SVG Export Plug-In . SVG Version: 6.00 Build 0)  -->
<!DOCTYPE svg PUBLIC "-//W3C//DTD SVG 1.1//EN" "http://www.w3.org/Graphics/SVG/1.1/DTD/svg11.dtd">
<svg version="1.1" id="Layer_1" xmlns="http://www.w3.org/2000/svg" xmlns:xlink="http://www.w3.org/1999/xlink" x="0px" y="0px"
	 width="64px" height="64px" viewBox="0 0 64 64" enable-background="new 0 0 64 64" xml:space="preserve">
<linearGradient id="SVGID_1_" gradientUnits="userSpaceOnUse" x1="4.8101" y1="32" x2="59.1904" y2="32">
	<stop  offset="0" style="stop-color:#048A6F"/>
	<stop  offset="0.3941" style="stop-color:#3C9243"/>
</linearGradient>
<path fill="url(#SVGID_1_)" d="M9.342,56.924L4.81,0.278h54.38l-4.532,56.646L32,63.723L9.342,56.924z"/>
<linearGradient id="SVGID_2_" gradientUnits="userSpaceOnUse" x1="32" y1="32.5659" x2="54.6582" y2="32.5659">
	<stop  offset="0" style="stop-color:#80BB41"/>
	<stop  offset="0.7389" style="stop-color:#ACD037"/>
</linearGradient>
<path fill="url(#SVGID_2_)" d="M54.658,4.81H32v55.513l18.127-5.664L54.658,4.81z"/>
<path fill="#FFFFFF" d="M17.272,33.133l-2.266-21.525h35.121l-1.134,6.797H21.804l1.133,7.931H47.86l-2.266,21.523L32,52.391
	l-13.595-4.531l-1.132-11.328h6.797l1.132,5.666L32,44.463l6.798-2.266l1.132-9.064H17.272z"/>
</svg>
