<?xml version="1.0" encoding="utf-8"?>
<!-- Generator: Adobe Illustrator 16.0.0, SVG Export Plug-In . SVG Version: 6.00 Build 0)  -->
<!DOCTYPE svg PUBLIC "-//W3C//DTD SVG 1.1//EN" "http://www.w3.org/Graphics/SVG/1.1/DTD/svg11.dtd">
<svg version="1.1" id="Layer_1" xmlns="http://www.w3.org/2000/svg" xmlns:xlink="http://www.w3.org/1999/xlink" x="0px" y="0px"
	 width="64px" height="64px" viewBox="0 0 64 64" enable-background="new 0 0 64 64" xml:space="preserve">
<g>
	<linearGradient id="SVGID_1_" gradientUnits="userSpaceOnUse" x1="31.9995" y1="18.5166" x2="31.9995" y2="50.3853">
		<stop  offset="0" style="stop-color:#C4DE98"/>
		<stop  offset="0.133" style="stop-color:#97CA3D"/>
		<stop  offset="0.4975" style="stop-color:#97CA3D"/>
		<stop  offset="1" style="stop-color:#078F45"/>
	</linearGradient>
	<path fill="url(#SVGID_1_)" d="M14.932,25.22c2.726,0.023,4.701,0.818,5.925,2.387c1.226,1.567,1.63,3.708,1.214,6.422
		c-0.162,1.24-0.521,2.457-1.074,3.65c-0.532,1.193-1.271,2.27-2.218,3.229c-1.156,1.217-2.392,1.988-3.708,2.316
		s-2.681,0.492-4.089,0.492H6.822l-1.316,6.668H0.689L5.645,25.22H14.932z M56.014,25.22c2.727,0.023,4.701,0.818,5.927,2.387
		c1.224,1.567,1.628,3.708,1.212,6.422c-0.162,1.24-0.52,2.457-1.074,3.65c-0.531,1.193-1.27,2.27-2.218,3.229
		c-1.155,1.217-2.392,1.988-3.708,2.316s-2.68,0.492-4.089,0.492h-4.158l-1.317,6.668h-4.816l4.955-25.165H56.014z M32.34,18.517
		l-1.353,6.704h4.297c2.357,0.047,4.112,0.538,5.268,1.474c1.178,0.936,1.525,2.715,1.04,5.335L39.27,43.717h-4.852l2.219-11.162
		c0.23-1.17,0.16-2.001-0.209-2.492s-1.166-0.736-2.391-0.736l-3.847-0.035L27.35,43.717h-4.782l4.99-25.2H32.34z M11.189,29.221
		c-0.277,0.022-0.543,0.035-0.798,0.035H9.692L7.619,39.75c0.139,0.023,0.277,0.035,0.416,0.035h0.485l0,0
		c2.218,0.023,4.066-0.199,5.544-0.666c1.479-0.492,2.473-2.199,2.981-5.125c0.415-2.457,0-3.872-1.248-4.247
		C14.573,29.374,13.037,29.198,11.189,29.221z M52.271,29.221c-0.277,0.022-0.543,0.035-0.798,0.035h-0.7L48.702,39.75
		c0.139,0.023,0.277,0.035,0.415,0.035h0.485l0,0c2.219,0.023,4.066-0.199,5.545-0.666c1.479-0.492,2.473-2.199,2.98-5.125
		c0.416-2.457,0-3.872-1.248-4.247C55.656,29.374,54.12,29.198,52.271,29.221z"/>
</g>
</svg>
