<?xml version="1.0" encoding="utf-8"?>
<!-- Generator: Adobe Illustrator 16.0.0, SVG Export Plug-In . SVG Version: 6.00 Build 0)  -->
<!DOCTYPE svg PUBLIC "-//W3C//DTD SVG 1.1//EN" "http://www.w3.org/Graphics/SVG/1.1/DTD/svg11.dtd">
<svg version="1.1" id="Layer_1" xmlns="http://www.w3.org/2000/svg" xmlns:xlink="http://www.w3.org/1999/xlink" x="0px" y="0px"
	 width="96px" height="96px" viewBox="0 0 96 96" enable-background="new 0 0 96 96" xml:space="preserve">
<linearGradient id="SVGID_1_" gradientUnits="userSpaceOnUse" x1="264.0586" y1="-265.9253" x2="317.5045" y2="-319.3712" gradientTransform="matrix(1 0 0 -1 -242 -234)">
	<stop  offset="0" style="stop-color:#16A94A"/>
	<stop  offset="0.7438" style="stop-color:#AAD039"/>
</linearGradient>
<path fill="url(#SVGID_1_)" d="M92.056,44.2c-0.258-0.018-0.557-0.031-0.857-0.031c-1.521,0-2.975,0.283-4.313,0.798l0.081-0.028
	c-0.392,0.158-1.021,0.158-1.074,0.657c0.218,0.206,0.249,0.55,0.432,0.838c0.366,0.621,0.819,1.15,1.347,1.59l0.01,0.01
	c0.549,0.431,1.1,0.847,1.676,1.215c1.021,0.629,2.182,1.002,3.18,1.634c0.57,0.367,1.15,0.836,1.727,1.229
	c0.287,0.195,0.473,0.549,0.84,0.674v-0.078c-0.178-0.234-0.234-0.578-0.412-0.84c-0.262-0.264-0.523-0.498-0.785-0.756
	c-0.779-1.021-1.68-1.894-2.691-2.623l-0.037-0.024c-0.84-0.571-2.678-1.372-3.023-2.337l-0.049-0.058
	c0.684-0.097,1.295-0.241,1.881-0.435l-0.076,0.021c0.893-0.234,1.711-0.185,2.629-0.414c0.416-0.106,0.836-0.236,1.258-0.368
	v-0.235c-0.473-0.472-0.822-1.111-1.309-1.552c-1.287-1.131-2.703-2.192-4.195-3.147l-0.141-0.085
	c-0.823-0.523-1.869-0.863-2.736-1.311c-0.314-0.156-0.84-0.234-1.021-0.498c-0.407-0.581-0.769-1.247-1.055-1.951l-0.025-0.069
	c-0.771-1.494-1.487-3.016-2.147-4.563c-0.452-1.203-0.902-2.19-1.407-3.146l0.071,0.148c-2.468-4.144-5.907-7.474-10.013-9.744
	l-0.135-0.069c-0.972-0.48-2.099-0.854-3.283-1.064l-0.078-0.013c-0.658-0.032-1.311-0.079-1.964-0.107
	c-0.458-0.295-0.854-0.597-1.224-0.93l0.01,0.01c-1.494-0.942-5.354-2.984-6.453-0.283c-0.706,1.703,1.05,3.382,1.656,4.247
	c0.482,0.574,0.922,1.219,1.304,1.9l0.03,0.063c0.186,0.455,0.236,0.924,0.421,1.397c0.455,1.421,0.917,2.586,1.442,3.714
	l-0.082-0.195c0.313,0.626,0.634,1.156,0.996,1.659l-0.025-0.038c0.21,0.287,0.571,0.422,0.657,0.893
	c-0.27,0.569-0.48,1.229-0.598,1.916l-0.006,0.045c-0.339,1.043-0.538,2.246-0.538,3.492c0,1.951,0.48,3.788,1.329,5.403
	l-0.032-0.063c0.422,0.65,1.42,2.095,2.758,1.542c1.18-0.472,0.918-1.964,1.258-3.275c0.078-0.314,0.028-0.522,0.189-0.736v0.061
	c0.366,0.738,0.736,1.441,1.072,2.181c0.949,1.365,2.077,2.528,3.364,3.485l0.042,0.029c0.629,0.471,1.127,1.287,1.913,1.576v-0.078
	h-0.061c-0.179-0.196-0.378-0.368-0.595-0.516l-0.012-0.006c-0.487-0.479-0.939-0.993-1.348-1.537l-0.025-0.034
	c-1.023-1.382-1.998-2.946-2.842-4.59l-0.092-0.19c-0.43-0.824-0.791-1.713-1.137-2.526c-0.158-0.314-0.158-0.786-0.422-0.942
	c-0.464,0.521-0.881,1.104-1.23,1.728l-0.023,0.051c-0.403,1.171-0.668,2.525-0.737,3.929v0.034c-0.106,0.029-0.054,0-0.106,0.057
	c-0.838-0.204-1.127-1.074-1.441-1.807c-0.428-1.148-0.676-2.48-0.676-3.866c0-1.118,0.16-2.198,0.462-3.221l-0.019,0.082
	c0.186-0.55,0.971-2.283,0.658-2.812c-0.165-0.499-0.683-0.785-0.972-1.19c-0.343-0.483-0.657-1.033-0.917-1.614l-0.025-0.063
	c-0.628-1.467-0.941-3.095-1.623-4.562c-0.413-0.766-0.847-1.426-1.332-2.041l0.021,0.028c-0.519-0.6-0.996-1.27-1.41-1.979
	l-0.035-0.062c-0.129-0.286-0.313-0.761-0.107-1.075c0.038-0.182,0.183-0.324,0.367-0.352h0.004
	c0.346-0.283,1.315,0.085,1.655,0.242c0.995,0.377,1.853,0.82,2.647,1.341l-0.05-0.032c0.367,0.259,0.767,0.758,1.238,0.887h0.55
	c0.838,0.186,1.787,0.056,2.572,0.286c1.441,0.486,2.689,1.096,3.841,1.843l-0.065-0.041c3.467,2.239,6.244,5.269,8.123,8.847
	l0.063,0.129c0.313,0.603,0.452,1.158,0.738,1.787c0.549,1.295,1.227,2.604,1.787,3.854c0.531,1.344,1.159,2.507,1.906,3.577
	l-0.037-0.056c0.391,0.549,1.969,0.835,2.676,1.121c0.744,0.26,1.34,0.509,1.918,0.787l-0.115-0.049
	c0.902,0.549,1.779,1.178,2.629,1.78c0.43,0.299,1.74,0.955,1.818,1.482L92.056,44.2z M55.229,67.171c0,0.047,0.003,0.1,0.003,0.154
	c0,1.752-0.782,3.32-2.019,4.375l-0.01,0.006c-1.356,1.107-3.105,1.777-5.013,1.777c-0.148,0-0.296-0.002-0.439-0.012h0.019
	c-2.321-0.031-4.457-0.787-6.207-2.045l0.031,0.021l0.93-1.869c1.347,0.754,2.949,1.223,4.652,1.287h0.019
	c0.085,0.008,0.183,0.012,0.283,0.012c1.043,0,2.013-0.326,2.807-0.883l-0.016,0.01c0.721-0.547,1.179-1.4,1.179-2.363
	c0-0.018,0-0.033,0-0.053v0.004c0-1.295-0.902-2.395-2.544-3.316c-1.524-0.836-4.564-2.58-4.564-2.58
	c-1.501-0.93-2.484-2.566-2.484-4.43c0-0.066,0-0.133,0.003-0.199v0.01c-0.003-0.061-0.003-0.129-0.003-0.197
	c0-1.619,0.713-3.07,1.841-4.057l0.007-0.006c1.199-1.018,2.767-1.637,4.479-1.637c0.11,0,0.218,0.004,0.324,0.008H48.49
	c0.028,0,0.063,0,0.099,0c2.006,0,3.876,0.6,5.433,1.633L53.983,52.8l-0.835,1.867c-1.229-0.551-2.661-0.885-4.169-0.9h-0.006
	c-0.076-0.006-0.16-0.012-0.248-0.012c-0.879,0-1.69,0.309-2.325,0.824l0.007-0.008c-0.594,0.494-0.971,1.232-0.974,2.057l0,0
	c0,1.289,0.917,2.395,2.614,3.338c1.542,0.846,4.659,2.631,4.659,2.631c1.531,0.9,2.546,2.541,2.546,4.418
	c0,0.057,0,0.115-0.003,0.172v-0.01L55.229,67.171z M61.737,68.841c-0.855-1.713-1.357-3.73-1.357-5.863
	c0-0.336,0.015-0.668,0.039-0.994l-0.003,0.043c0-5.467,1.661-8.201,4.983-8.205c0.084-0.006,0.18-0.008,0.281-0.008
	c1.492,0,2.801,0.777,3.547,1.953l0.008,0.016c0.852,1.701,1.352,3.713,1.352,5.836c0,0.326-0.014,0.65-0.035,0.971l0.004-0.043
	c0,5.51-1.661,8.27-4.986,8.273c-0.084,0.006-0.182,0.01-0.278,0.01c-1.491,0-2.805-0.779-3.549-1.955l-0.011-0.016L61.737,68.841z
	 M74.661,73.714l-3.989-1.963c0.364-0.305,0.69-0.625,0.991-0.971l0.01-0.01c1.613-2.174,2.579-4.91,2.579-7.869
	c0-0.342-0.011-0.682-0.038-1.018l0.004,0.045c0-7.184-2.82-10.777-8.459-10.781c-0.127-0.006-0.273-0.01-0.421-0.01
	c-2.41,0-4.573,1.061-6.047,2.738l-0.007,0.012c-1.605,2.174-2.569,4.906-2.569,7.865c0,0.332,0.014,0.662,0.038,0.99l-0.002-0.047
	c-0.029,0.32-0.045,0.689-0.045,1.064c0,2.744,0.859,5.287,2.324,7.379l-0.029-0.043c1.41,1.502,3.411,2.438,5.627,2.438
	c0.207,0,0.41-0.01,0.611-0.023l-0.027,0.002c0.027,0,0.065,0,0.1,0c0.977,0,1.923-0.141,2.818-0.402l-0.068,0.02l5.201,3.031
	l1.412-2.439L74.661,73.714z M87.69,73.185H77.365V51.478h3.474v19.039h6.852V73.185z M39.314,57.169
	c-0.901,6.547-2.965,12.455-5.984,17.746l0.125-0.24c-1.209,2.328-3.496,3.949-6.181,4.209l-0.031,0.002
	c-0.814-0.043-1.571-0.238-2.258-0.555l0.037,0.016v-1.938c0.431,0.066,0.927,0.104,1.433,0.104c0.028,0,0.056,0,0.088,0h-0.004
	c0.051,0.002,0.107,0.002,0.164,0.002c0.908,0,1.74-0.328,2.381-0.879l-0.007,0.004c0.691-0.568,1.134-1.416,1.158-2.371v-0.004
	c-0.166-1.375-0.483-2.631-0.938-3.813l0.038,0.105l-3.98-12.387h3.573l2.854,9.264c0.509,1.305,0.804,2.82,0.804,4.398
	c0,0.004,0,0.006,0,0.006l0,0c1.514-3.963,2.663-8.586,3.249-13.383l0.028-0.291L39.314,57.169z M23.545,73.185h-3.637
	c-0.103-5.781-0.455-11.553-1.059-17.311h-0.031l-5.534,17.311h-2.768L5.02,55.874H4.982c-0.43,5.76-0.685,11.529-0.767,17.311
	H0.898c0.216-7.717,0.751-14.955,1.608-21.709h4.514l5.239,15.953h0.032l5.287-15.953h4.296c0.952,7.908,1.511,15.145,1.681,21.709
	H23.545z M65.291,21.396c-0.006,0-0.017,0-0.026,0c-0.373,0-0.734,0.047-1.079,0.135l0.03-0.006v0.051h0.054
	c0.271,0.401,0.547,0.75,0.845,1.077l-0.006-0.006c0.21,0.42,0.394,0.838,0.604,1.256l0.054-0.061
	c0.342-0.269,0.559-0.684,0.559-1.149c0-0.056-0.003-0.109-0.011-0.167v0.007c-0.156-0.186-0.178-0.368-0.313-0.55
	c-0.158-0.264-0.493-0.393-0.709-0.6L65.291,21.396z"/>
</svg>
