<?xml version="1.0" encoding="utf-8"?>
<!-- Generator: Adobe Illustrator 16.0.0, SVG Export Plug-In . SVG Version: 6.00 Build 0)  -->
<!DOCTYPE svg PUBLIC "-//W3C//DTD SVG 1.1//EN" "http://www.w3.org/Graphics/SVG/1.1/DTD/svg11.dtd">
<svg version="1.1" id="Layer_1" xmlns="http://www.w3.org/2000/svg" xmlns:xlink="http://www.w3.org/1999/xlink" x="0px" y="0px"
	 width="128px" height="128px" viewBox="0 0 128 128" enable-background="new 0 0 128 128" xml:space="preserve">
<path fill="#63BC46" d="M48.945,62.743c0-3.956-1.128-5.987-3.386-6.098c-0.896-0.043-1.773,0.1-2.625,0.433
	c-0.68,0.241-1.139,0.483-1.379,0.727v9.444c1.443,0.906,2.725,1.325,3.842,1.26C47.761,68.353,48.945,66.43,48.945,62.743z
	 M51.729,62.906c0,2.01-0.474,3.678-1.421,5.004c-1.057,1.504-2.521,2.276-4.392,2.319c-1.414,0.043-2.866-0.397-4.362-1.325v8.581
	l-2.42-0.862V57.574c0.398-0.488,0.909-0.906,1.528-1.261c1.44-0.839,3.191-1.271,5.252-1.292l0.034,0.034
	c1.882-0.023,3.333,0.75,4.354,2.318C51.252,58.811,51.729,60.654,51.729,62.906z M66.52,68.54c0,2.696-0.271,4.563-0.809,5.601
	c-0.542,1.039-1.578,1.865-3.102,2.482c-1.236,0.488-2.573,0.753-4.009,0.798l-0.4-1.526c1.459-0.196,2.487-0.396,3.083-0.594
	c1.173-0.399,1.978-1.007,2.42-1.822c0.354-0.664,0.53-1.933,0.53-3.812v-0.629c-1.656,0.753-3.39,1.124-5.204,1.124
	c-1.191,0-2.244-0.371-3.148-1.124c-1.018-0.817-1.526-1.857-1.526-3.114V55.85l2.421-0.829v10.14c0,1.083,0.349,1.916,1.047,2.501
	c0.699,0.586,1.605,0.865,2.714,0.844c1.111-0.022,2.299-0.451,3.562-1.29V55.385h2.42V68.54L66.52,68.54z M75.97,70.096
	c-0.268,0.024-0.53,0.036-0.796,0.036c-1.372,0-2.439-0.325-3.203-0.98c-0.755-0.654-1.14-1.557-1.14-2.71v-9.533h-1.659v-1.523
	h1.659v-4.043l2.418-0.859v4.903h2.721v1.523h-2.721v9.468c0,0.909,0.242,1.552,0.733,1.929c0.415,0.311,1.081,0.487,1.987,0.533
	V70.096L75.97,70.096z M90.622,69.897h-2.418v-9.34c0-0.952-0.224-1.77-0.666-2.453c-0.51-0.775-1.219-1.16-2.132-1.16
	c-1.108,0-2.496,0.583-4.163,1.755v11.198h-2.421V47.566l2.421-0.762v10.17c1.549-1.125,3.237-1.688,5.072-1.688
	c1.281,0,2.319,0.43,3.111,1.292c0.799,0.86,1.195,1.932,1.195,3.215V69.897L90.622,69.897L90.622,69.897z M103.488,62.361
	c0-1.52-0.289-2.776-0.865-3.768c-0.681-1.209-1.744-1.849-3.179-1.915c-2.652,0.154-3.978,2.055-3.978,5.698
	c0,1.672,0.273,3.067,0.83,4.188c0.711,1.428,1.776,2.132,3.194,2.106C102.157,68.65,103.488,66.547,103.488,62.361L103.488,62.361z
	 M106.139,62.377c0,2.164-0.557,3.964-1.658,5.401c-1.215,1.613-2.896,2.42-5.036,2.42c-2.124,0-3.781-0.809-4.973-2.42
	c-1.083-1.438-1.622-3.238-1.622-5.401c0-2.033,0.584-3.745,1.756-5.137c1.234-1.479,2.86-2.219,4.87-2.219
	c2.007,0,3.646,0.741,4.907,2.219C105.555,58.632,106.139,60.344,106.139,62.377L106.139,62.377z M120.017,69.897h-2.421v-9.873
	c0-1.083-0.326-1.926-0.977-2.536c-0.655-0.606-1.525-0.902-2.607-0.877c-1.147,0.021-2.241,0.399-3.279,1.127v12.159h-2.418V57.438
	c1.392-1.013,2.672-1.676,3.844-1.984c1.103-0.29,2.078-0.433,2.917-0.433c0.576,0,1.115,0.056,1.626,0.167
	c0.948,0.22,1.721,0.628,2.316,1.227c0.666,0.663,0.999,1.456,0.999,2.386V69.897z"/>
<linearGradient id="SVGID_1_" gradientUnits="userSpaceOnUse" x1="-2019.6729" y1="446.5684" x2="-2002.0945" y2="461.6921" gradientTransform="matrix(0.9478 0 0 0.957 1913.7549 -378.8467)">
	<stop  offset="0" style="stop-color:#085DA8"/>
	<stop  offset="1" style="stop-color:#72BF45"/>
</linearGradient>
<path fill="url(#SVGID_1_)" d="M15.228,47.657c-1.245,0.005-2.434,0.11-3.481,0.297c-3.081,0.543-3.642,1.684-3.642,3.787v2.776
	h7.285v0.924H5.372c-2.117,0-3.97,1.274-4.551,3.693c-0.668,2.774-0.697,4.507,0,7.405c0.519,2.155,1.755,3.692,3.872,3.692h2.505
	v-3.328c0-2.404,2.08-4.525,4.549-4.525h7.277c2.025,0,3.642-1.666,3.642-3.702v-6.935c0-1.976-1.664-3.459-3.642-3.788
	C17.771,47.745,16.473,47.65,15.228,47.657z M11.29,49.889c0.751,0,1.366,0.624,1.366,1.392c0,0.765-0.615,1.383-1.366,1.383
	c-0.757,0-1.368-0.619-1.368-1.383C9.922,50.513,10.533,49.889,11.29,49.889z"/>
<linearGradient id="SVGID_2_" gradientUnits="userSpaceOnUse" x1="-1995.3037" y1="470.8457" x2="-2001.5807" y2="461.9647" gradientTransform="matrix(0.9478 0 0 0.957 1913.7549 -378.8467)">
	<stop  offset="0" style="stop-color:#FFFFFF"/>
	<stop  offset="1" style="stop-color:#E3ECE1"/>
</linearGradient>
<path fill="url(#SVGID_2_)" d="M23.574,55.441v3.235c0,2.508-2.125,4.62-4.55,4.62h-7.277c-1.992,0-3.642,1.704-3.642,3.702v6.936
	c0,1.974,1.717,3.136,3.642,3.7c2.307,0.68,4.518,0.802,7.277,0c1.834-0.529,3.642-1.6,3.642-3.7v-2.776h-7.276v-0.925h10.919
	c2.118,0,2.906-1.478,3.642-3.692c0.76-2.283,0.728-4.477,0-7.405c-0.524-2.107-1.521-3.693-3.642-3.693H23.574z M19.482,73.008
	c0.754,0,1.367,0.617,1.367,1.384c0,0.769-0.613,1.392-1.367,1.392c-0.752,0-1.366-0.623-1.366-1.392
	C18.116,73.625,18.729,73.008,19.482,73.008z"/>
<path fill="#A5A5A5" d="M123.116,53.229h0.425v-2.661h1.003V50.25h-2.436v0.318h1.004v2.661 M124.921,53.229h0.362v-2.431
	l0.788,2.431h0.399l0.825-2.423v2.423h0.396V50.25h-0.525l-0.895,2.553l-0.769-2.553h-0.582V53.229"/>
<radialGradient id="SVGID_3_" cx="-3818.4424" cy="172.4746" r="4.6808" gradientTransform="matrix(0 -0.4042 1.7771 0 -291.0303 -1461.1523)" gradientUnits="userSpaceOnUse">
	<stop  offset="0" style="stop-color:#B9B9B9;stop-opacity:0.498"/>
	<stop  offset="1" style="stop-color:#808080;stop-opacity:0"/>
</radialGradient>
<path opacity="0.444" fill="url(#SVGID_3_)" enable-background="new    " d="M25.234,82.35c0,1.045-4.371,1.893-9.764,1.893
	c-5.389,0-9.761-0.848-9.761-1.893c0-1.046,4.372-1.894,9.761-1.894C20.863,80.456,25.234,81.304,25.234,82.35z"/>
</svg>
